<svg width="14" height="11" viewBox="0 0 14 11" fill="none" xmlns="http://www.w3.org/2000/svg">
<path d="M12.6875 0.5C13.3984 0.5 14 1.10156 14 1.8125V9.6875C14 10.4258 13.3984 11 12.6875 11H1.3125C0.574219 11 0 10.4258 0 9.6875V1.8125C0 1.10156 0.574219 0.5 1.3125 0.5H12.6875ZM1.3125 1.375C1.06641 1.375 0.875 1.59375 0.875 1.8125V2.96094C1.44922 3.45312 2.32422 4.16406 4.97656 6.26953C5.44141 6.65234 6.34375 7.52734 7 7.5C7.62891 7.52734 8.53125 6.65234 8.99609 6.26953C11.6484 4.16406 12.5234 3.45312 13.125 2.96094V1.8125C13.125 1.59375 12.9062 1.375 12.6875 1.375H1.3125ZM12.6875 10.125C12.9062 10.125 13.125 9.93359 13.125 9.6875V4.08203C12.4961 4.60156 11.5117 5.39453 9.54297 6.95312C8.96875 7.41797 7.98438 8.40234 7 8.375C5.98828 8.40234 5.00391 7.41797 4.42969 6.95312C2.46094 5.39453 1.47656 4.60156 0.875 4.08203V9.6875C0.875 9.93359 1.06641 10.125 1.3125 10.125H12.6875Z" fill="#333333"/>
</svg>
