<svg width="38" height="60" viewBox="0 0 38 60" fill="none" xmlns="http://www.w3.org/2000/svg">
<path d="M20.5512 42.2555C26.0077 44.6628 37.3589 31.9951 36.2798 24.2855C35.7324 20.3748 34.448 19.0714 30.356 18.0814C24.8448 17.3034 22.3154 19.2127 17.6763 19.3982C6.58657 19.8416 2.81661 17.009 0.908018 20.7261C-0.888305 24.2245 7.7336 36.6007 20.5512 42.2555Z" fill="#C9877B"/>
<path d="M16.142 39.1654C15.982 39.1654 15.846 39.1094 15.734 38.9974C15.622 38.9014 15.582 38.7494 15.614 38.5414C15.71 38.0134 15.774 37.6454 15.806 37.4374C15.854 37.2454 15.886 37.1014 15.902 37.0054C15.934 36.9094 15.966 36.7734 15.998 36.5974C16.046 36.4214 16.102 36.0934 16.166 35.6134C16.294 34.8454 16.382 34.1334 16.43 33.4774C16.478 32.8054 16.51 32.1894 16.526 31.6294C15.918 31.6934 15.342 31.7574 14.798 31.8214C14.27 31.8854 13.678 32.0374 13.022 32.2774H12.998C12.742 32.3734 12.494 32.5094 12.254 32.6854C12.014 32.8454 11.726 32.9894 11.39 33.1174C11.294 33.1494 11.214 33.1654 11.15 33.1654C10.958 33.1654 10.814 33.0854 10.718 32.9254C10.638 32.7494 10.614 32.5814 10.646 32.4214C10.534 32.5974 10.422 32.7494 10.31 32.8774C10.038 33.2774 9.79805 33.6294 9.59005 33.9334C9.39805 34.2214 9.16605 34.5654 8.89405 34.9654C8.63805 35.3334 8.41405 35.7414 8.22205 36.1894C8.03005 36.6214 7.82205 37.0214 7.59805 37.3894C7.48605 37.5494 7.34205 37.6294 7.16605 37.6294C6.99005 37.6294 6.83005 37.5574 6.68605 37.4134C6.54205 37.2694 6.47005 37.1014 6.47005 36.9094C6.47005 36.7974 6.50205 36.6854 6.56605 36.5734C6.80605 36.2054 7.02205 35.8934 7.21405 35.6374C7.42205 35.3654 7.64605 35.0534 7.88605 34.7014C8.17405 34.2854 8.41405 33.9334 8.60605 33.6454C8.81405 33.3574 9.04605 33.0214 9.30205 32.6374C9.60605 32.1894 9.87805 31.7974 10.118 31.4614C10.374 31.1254 10.622 30.7894 10.862 30.4534C11.118 30.1014 11.39 29.7094 11.678 29.2774C11.934 28.8774 12.134 28.5014 12.278 28.1494C12.438 27.7814 12.606 27.4214 12.782 27.0694C12.974 26.7174 13.246 26.3654 13.598 26.0134L13.622 25.9894C13.99 25.6214 14.358 25.1894 14.726 24.6934C15.094 24.1814 15.358 23.7494 15.518 23.3974C15.822 23.0454 16.158 22.8694 16.526 22.8694C16.958 22.8694 17.318 23.1094 17.606 23.5894C17.67 23.7494 17.71 23.9014 17.726 24.0454C17.742 24.1894 17.75 24.3334 17.75 24.4774C17.75 24.7014 17.734 24.9174 17.702 25.1254C17.686 25.3334 17.678 25.5414 17.678 25.7494C17.694 26.2774 17.702 26.7494 17.702 27.1654C17.718 27.5654 17.726 27.9894 17.726 28.4374C17.726 28.6454 17.726 28.8614 17.726 29.0854C17.726 29.3094 17.718 29.5494 17.702 29.8054C17.702 29.8694 17.694 29.9574 17.678 30.0694C17.678 30.1814 17.678 30.2614 17.678 30.3094H17.918C18.11 30.3094 18.254 30.3574 18.35 30.4534C18.446 30.5494 18.494 30.6614 18.494 30.7894C18.494 30.9174 18.446 31.0454 18.35 31.1734C18.254 31.2854 18.102 31.3574 17.894 31.3894C17.846 31.4054 17.798 31.4214 17.75 31.4374C17.702 31.4374 17.646 31.4534 17.582 31.4854C17.55 31.8214 17.518 32.1654 17.486 32.5174C17.454 32.8534 17.414 33.2294 17.366 33.6454C17.302 34.2694 17.246 34.8294 17.198 35.3254C17.166 35.8054 17.118 36.3014 17.054 36.8134C17.006 37.3094 16.918 37.9174 16.79 38.6374C16.758 38.8134 16.678 38.9414 16.55 39.0214C16.422 39.1174 16.286 39.1654 16.142 39.1654ZM12.638 29.8054C12.318 30.3174 12.03 30.7254 11.774 31.0294C11.518 31.3334 11.254 31.6694 10.982 32.0374L11.054 31.9654C11.358 31.8534 11.622 31.7334 11.846 31.6054C12.086 31.4614 12.374 31.3574 12.71 31.2934C12.71 31.2934 12.918 31.2454 13.334 31.1494C13.75 31.0534 14.254 30.9414 14.846 30.8134C15.454 30.6694 16.03 30.5494 16.574 30.4534L16.598 29.6374C16.598 29.4934 16.598 29.3494 16.598 29.2054C16.614 29.0614 16.622 28.9334 16.622 28.8214C16.622 28.3094 16.606 27.8454 16.574 27.4294C16.558 27.0134 16.542 26.4854 16.526 25.8454C16.558 25.6214 16.582 25.4134 16.598 25.2214C16.614 25.0294 16.622 24.8534 16.622 24.6934C16.622 24.4374 16.598 24.2614 16.55 24.1654C16.518 24.1654 16.462 24.1734 16.382 24.1894C16.318 24.1894 16.254 24.2214 16.19 24.2854C15.902 24.4774 15.646 24.7734 15.422 25.1734C15.214 25.5734 14.934 26.0374 14.582 26.5654V26.5414C14.182 27.1334 13.862 27.6694 13.622 28.1494C13.382 28.6134 13.054 29.1654 12.638 29.8054ZM28.6232 35.8294C28.5112 35.8294 28.3912 35.7974 28.2632 35.7334C28.1512 35.6694 28.0632 35.5734 27.9992 35.4454C27.7432 34.8214 27.4632 34.1334 27.1592 33.3814C26.8552 32.6134 26.5912 31.9014 26.3672 31.2454C25.9352 29.9174 25.5912 28.6534 25.3352 27.4534C25.0952 26.2374 24.9752 25.2854 24.9752 24.5974C24.9752 24.4854 24.9752 24.3814 24.9752 24.2854C24.9912 24.1894 25.0072 24.1094 25.0232 24.0454C25.0552 23.8534 25.1432 23.7094 25.2872 23.6134C25.4472 23.5014 25.6072 23.4454 25.7672 23.4454C25.9272 23.4454 26.0632 23.4934 26.1752 23.5894C26.2872 23.6694 26.3272 23.8054 26.2952 23.9974C26.2792 24.0774 26.2472 24.2534 26.1992 24.5254C26.1672 24.7814 26.1592 24.9734 26.1752 25.1014C26.1752 25.4054 26.2152 25.8694 26.2952 26.4934C26.3912 27.1014 26.5352 27.8054 26.7272 28.6054C26.9192 29.4054 27.1592 30.2374 27.4472 31.1014C27.5432 31.3894 27.6792 31.7254 27.8552 32.1094C28.0312 32.4934 28.2072 32.8614 28.3832 33.2134C28.5752 33.5654 28.7112 33.8694 28.7912 34.1254C28.9832 33.8374 29.2392 33.3494 29.5592 32.6614C29.8952 31.9574 30.2632 31.1574 30.6632 30.2614C31.0792 29.3494 31.5112 28.4134 31.9592 27.4534C32.4072 26.4934 32.8392 25.5894 33.2552 24.7414C33.6872 23.8774 34.0792 23.1654 34.4312 22.6054C34.7992 22.0294 35.0952 21.6854 35.3192 21.5734C35.5432 21.4454 35.7832 21.3814 36.0392 21.3814C36.1512 21.3814 36.2472 21.4054 36.3272 21.4534C36.4072 21.4854 36.4472 21.5494 36.4472 21.6454C36.4472 21.7574 36.3912 21.8854 36.2792 22.0294C36.1672 22.1734 36.0472 22.2934 35.9192 22.3894C35.5832 22.6454 35.2152 23.0934 34.8152 23.7334C34.4152 24.3574 33.9992 25.1014 33.5672 25.9654C33.1512 26.8134 32.7272 27.7174 32.2952 28.6774C31.8792 29.6214 31.4712 30.5494 31.0712 31.4614C30.6872 32.3574 30.3272 33.1734 29.9912 33.9094C29.6552 34.6294 29.3672 35.1894 29.1272 35.5894C29.0312 35.7494 28.8632 35.8294 28.6232 35.8294ZM20.8472 37.6774C20.5592 37.6774 20.2712 37.5814 19.9832 37.3894C19.6952 37.2134 19.5752 36.9094 19.6232 36.4774C19.8312 34.8134 20.1672 33.3014 20.6312 31.9414C21.1112 30.5814 21.6312 29.3574 22.1912 28.2694C22.7512 27.1654 23.2552 26.1814 23.7032 25.3174C23.9112 24.9334 24.1352 24.7414 24.3752 24.7414C24.5992 24.7414 24.6872 24.9174 24.6392 25.2694H24.6632C24.6472 25.3494 24.5752 25.5254 24.4472 25.7974C24.3192 26.0694 24.1672 26.3894 23.9912 26.7574C23.8312 27.1094 23.6632 27.4534 23.4872 27.7894C23.3272 28.1094 23.2072 28.3574 23.1272 28.5334C22.8072 29.1894 22.5352 29.7574 22.3112 30.2374C22.1032 30.7014 21.9192 31.1254 21.7592 31.5094C21.6152 31.8934 21.4952 32.2854 21.3992 32.6854C21.3032 33.0854 21.2232 33.5574 21.1592 34.1014C21.0952 34.6294 21.0312 35.2774 20.9672 36.0454C20.9672 36.1574 21.0152 36.2854 21.1112 36.4294C21.2232 36.5574 21.3272 36.6854 21.4232 36.8134C21.5352 36.9414 21.5912 37.0694 21.5912 37.1974C21.5912 37.3254 21.5192 37.4374 21.3752 37.5334C21.2632 37.6294 21.0872 37.6774 20.8472 37.6774Z" fill="black"/>
<path d="M33.8527 37.7014C33.7567 37.7654 33.6287 37.7654 33.4687 37.7014C33.3087 37.6374 33.1727 37.5254 33.0607 37.3654C32.9487 37.2214 32.9087 37.0774 32.9407 36.9334C33.0687 36.5014 33.2767 36.1414 33.5647 35.8534C33.7247 35.7254 33.9087 35.6614 34.1167 35.6614C34.3087 35.6614 34.4767 35.7174 34.6207 35.8294C34.7807 35.9254 34.8447 36.0694 34.8127 36.2614C34.7967 36.3414 34.7247 36.5334 34.5967 36.8374C34.4847 37.1414 34.2367 37.4294 33.8527 37.7014Z" fill="#F2F2F2"/>
<path d="M17.142 39.1654C16.982 39.1654 16.846 39.1094 16.734 38.9974C16.622 38.9014 16.582 38.7494 16.614 38.5414C16.71 38.0134 16.774 37.6454 16.806 37.4374C16.854 37.2454 16.886 37.1014 16.902 37.0054C16.934 36.9094 16.966 36.7734 16.998 36.5974C17.046 36.4214 17.102 36.0934 17.166 35.6134C17.294 34.8454 17.382 34.1334 17.43 33.4774C17.478 32.8054 17.51 32.1894 17.526 31.6294C16.918 31.6934 16.342 31.7574 15.798 31.8214C15.27 31.8854 14.678 32.0374 14.022 32.2774H13.998C13.742 32.3734 13.494 32.5094 13.254 32.6854C13.014 32.8454 12.726 32.9894 12.39 33.1174C12.294 33.1494 12.214 33.1654 12.15 33.1654C11.958 33.1654 11.814 33.0854 11.718 32.9254C11.638 32.7494 11.614 32.5814 11.646 32.4214C11.534 32.5974 11.422 32.7494 11.31 32.8774C11.038 33.2774 10.798 33.6294 10.59 33.9334C10.398 34.2214 10.166 34.5654 9.89405 34.9654C9.63805 35.3334 9.41405 35.7414 9.22205 36.1894C9.03005 36.6214 8.82205 37.0214 8.59805 37.3894C8.48605 37.5494 8.34205 37.6294 8.16605 37.6294C7.99005 37.6294 7.83005 37.5574 7.68605 37.4134C7.54205 37.2694 7.47005 37.1014 7.47005 36.9094C7.47005 36.7974 7.50205 36.6854 7.56605 36.5734C7.80605 36.2054 8.02205 35.8934 8.21405 35.6374C8.42205 35.3654 8.64605 35.0534 8.88605 34.7014C9.17405 34.2854 9.41405 33.9334 9.60605 33.6454C9.81405 33.3574 10.046 33.0214 10.302 32.6374C10.606 32.1894 10.878 31.7974 11.118 31.4614C11.374 31.1254 11.622 30.7894 11.862 30.4534C12.118 30.1014 12.39 29.7094 12.678 29.2774C12.934 28.8774 13.134 28.5014 13.278 28.1494C13.438 27.7814 13.606 27.4214 13.782 27.0694C13.974 26.7174 14.246 26.3654 14.598 26.0134L14.622 25.9894C14.99 25.6214 15.358 25.1894 15.726 24.6934C16.094 24.1814 16.358 23.7494 16.518 23.3974C16.822 23.0454 17.158 22.8694 17.526 22.8694C17.958 22.8694 18.318 23.1094 18.606 23.5894C18.67 23.7494 18.71 23.9014 18.726 24.0454C18.742 24.1894 18.75 24.3334 18.75 24.4774C18.75 24.7014 18.734 24.9174 18.702 25.1254C18.686 25.3334 18.678 25.5414 18.678 25.7494C18.694 26.2774 18.702 26.7494 18.702 27.1654C18.718 27.5654 18.726 27.9894 18.726 28.4374C18.726 28.6454 18.726 28.8614 18.726 29.0854C18.726 29.3094 18.718 29.5494 18.702 29.8054C18.702 29.8694 18.694 29.9574 18.678 30.0694C18.678 30.1814 18.678 30.2614 18.678 30.3094H18.918C19.11 30.3094 19.254 30.3574 19.35 30.4534C19.446 30.5494 19.494 30.6614 19.494 30.7894C19.494 30.9174 19.446 31.0454 19.35 31.1734C19.254 31.2854 19.102 31.3574 18.894 31.3894C18.846 31.4054 18.798 31.4214 18.75 31.4374C18.702 31.4374 18.646 31.4534 18.582 31.4854C18.55 31.8214 18.518 32.1654 18.486 32.5174C18.454 32.8534 18.414 33.2294 18.366 33.6454C18.302 34.2694 18.246 34.8294 18.198 35.3254C18.166 35.8054 18.118 36.3014 18.054 36.8134C18.006 37.3094 17.918 37.9174 17.79 38.6374C17.758 38.8134 17.678 38.9414 17.55 39.0214C17.422 39.1174 17.286 39.1654 17.142 39.1654ZM13.638 29.8054C13.318 30.3174 13.03 30.7254 12.774 31.0294C12.518 31.3334 12.254 31.6694 11.982 32.0374L12.054 31.9654C12.358 31.8534 12.622 31.7334 12.846 31.6054C13.086 31.4614 13.374 31.3574 13.71 31.2934C13.71 31.2934 13.918 31.2454 14.334 31.1494C14.75 31.0534 15.254 30.9414 15.846 30.8134C16.454 30.6694 17.03 30.5494 17.574 30.4534L17.598 29.6374C17.598 29.4934 17.598 29.3494 17.598 29.2054C17.614 29.0614 17.622 28.9334 17.622 28.8214C17.622 28.3094 17.606 27.8454 17.574 27.4294C17.558 27.0134 17.542 26.4854 17.526 25.8454C17.558 25.6214 17.582 25.4134 17.598 25.2214C17.614 25.0294 17.622 24.8534 17.622 24.6934C17.622 24.4374 17.598 24.2614 17.55 24.1654C17.518 24.1654 17.462 24.1734 17.382 24.1894C17.318 24.1894 17.254 24.2214 17.19 24.2854C16.902 24.4774 16.646 24.7734 16.422 25.1734C16.214 25.5734 15.934 26.0374 15.582 26.5654V26.5414C15.182 27.1334 14.862 27.6694 14.622 28.1494C14.382 28.6134 14.054 29.1654 13.638 29.8054ZM29.6232 35.8294C29.5112 35.8294 29.3912 35.7974 29.2632 35.7334C29.1512 35.6694 29.0632 35.5734 28.9992 35.4454C28.7432 34.8214 28.4632 34.1334 28.1592 33.3814C27.8552 32.6134 27.5912 31.9014 27.3672 31.2454C26.9352 29.9174 26.5912 28.6534 26.3352 27.4534C26.0952 26.2374 25.9752 25.2854 25.9752 24.5974C25.9752 24.4854 25.9752 24.3814 25.9752 24.2854C25.9912 24.1894 26.0072 24.1094 26.0232 24.0454C26.0552 23.8534 26.1432 23.7094 26.2872 23.6134C26.4472 23.5014 26.6072 23.4454 26.7672 23.4454C26.9272 23.4454 27.0632 23.4934 27.1752 23.5894C27.2872 23.6694 27.3272 23.8054 27.2952 23.9974C27.2792 24.0774 27.2472 24.2534 27.1992 24.5254C27.1672 24.7814 27.1592 24.9734 27.1752 25.1014C27.1752 25.4054 27.2152 25.8694 27.2952 26.4934C27.3912 27.1014 27.5352 27.8054 27.7272 28.6054C27.9192 29.4054 28.1592 30.2374 28.4472 31.1014C28.5432 31.3894 28.6792 31.7254 28.8552 32.1094C29.0312 32.4934 29.2072 32.8614 29.3832 33.2134C29.5752 33.5654 29.7112 33.8694 29.7912 34.1254C29.9832 33.8374 30.2392 33.3494 30.5592 32.6614C30.8952 31.9574 31.2632 31.1574 31.6632 30.2614C32.0792 29.3494 32.5112 28.4134 32.9592 27.4534C33.4072 26.4934 33.8392 25.5894 34.2552 24.7414C34.6872 23.8774 35.0792 23.1654 35.4312 22.6054C35.7992 22.0294 36.0952 21.6854 36.3192 21.5734C36.5432 21.4454 36.7832 21.3814 37.0392 21.3814C37.1512 21.3814 37.2472 21.4054 37.3272 21.4534C37.4072 21.4854 37.4472 21.5494 37.4472 21.6454C37.4472 21.7574 37.3912 21.8854 37.2792 22.0294C37.1672 22.1734 37.0472 22.2934 36.9192 22.3894C36.5832 22.6454 36.2152 23.0934 35.8152 23.7334C35.4152 24.3574 34.9992 25.1014 34.5672 25.9654C34.1512 26.8134 33.7272 27.7174 33.2952 28.6774C32.8792 29.6214 32.4712 30.5494 32.0712 31.4614C31.6872 32.3574 31.3272 33.1734 30.9912 33.9094C30.6552 34.6294 30.3672 35.1894 30.1272 35.5894C30.0312 35.7494 29.8632 35.8294 29.6232 35.8294ZM21.8472 37.6774C21.5592 37.6774 21.2712 37.5814 20.9832 37.3894C20.6952 37.2134 20.5752 36.9094 20.6232 36.4774C20.8312 34.8134 21.1672 33.3014 21.6312 31.9414C22.1112 30.5814 22.6312 29.3574 23.1912 28.2694C23.7512 27.1654 24.2552 26.1814 24.7032 25.3174C24.9112 24.9334 25.1352 24.7414 25.3752 24.7414C25.5992 24.7414 25.6872 24.9174 25.6392 25.2694H25.6632C25.6472 25.3494 25.5752 25.5254 25.4472 25.7974C25.3192 26.0694 25.1672 26.3894 24.9912 26.7574C24.8312 27.1094 24.6632 27.4534 24.4872 27.7894C24.3272 28.1094 24.2072 28.3574 24.1272 28.5334C23.8072 29.1894 23.5352 29.7574 23.3112 30.2374C23.1032 30.7014 22.9192 31.1254 22.7592 31.5094C22.6152 31.8934 22.4952 32.2854 22.3992 32.6854C22.3032 33.0854 22.2232 33.5574 22.1592 34.1014C22.0952 34.6294 22.0312 35.2774 21.9672 36.0454C21.9672 36.1574 22.0152 36.2854 22.1112 36.4294C22.2232 36.5574 22.3272 36.6854 22.4232 36.8134C22.5352 36.9414 22.5912 37.0694 22.5912 37.1974C22.5912 37.3254 22.5192 37.4374 22.3752 37.5334C22.2632 37.6294 22.0872 37.6774 21.8472 37.6774Z" fill="white"/>
</svg>
