<svg width="20" height="20" viewBox="0 0 20 20" fill="none" xmlns="http://www.w3.org/2000/svg">
<g clip-path="url(#clip0_666_14664)">
<path d="M6.66602 5C7.9921 5 9.26387 5.52678 10.2015 6.46447C11.1392 7.40215 11.666 8.67392 11.666 10C11.666 11.3261 11.1392 12.5979 10.2015 13.5355C9.26387 14.4732 7.9921 15 6.66602 15C5.33993 15 4.06816 14.4732 3.13048 13.5355C2.1928 12.5979 1.66602 11.3261 1.66602 10C1.66602 8.67392 2.1928 7.40215 3.13048 6.46447C4.06816 5.52678 5.33993 5 6.66602 5ZM14.166 5.83333C15.416 5.83333 16.2493 7.69917 16.2493 10C16.2493 12.3008 15.416 14.1667 14.166 14.1667C12.916 14.1667 12.0827 12.3008 12.0827 10C12.0827 7.69917 12.916 5.83333 14.166 5.83333ZM17.4993 6.25C17.816 6.25 18.0927 6.93917 18.2327 8.12167L18.2719 8.49083L18.2877 8.68667L18.3127 9.09833L18.321 9.31417L18.331 9.765L18.3327 10L18.331 10.235L18.321 10.6858L18.3127 10.9025L18.2877 11.3133L18.271 11.5092L18.2335 11.8783C18.0927 13.0617 17.8169 13.75 17.4993 13.75C17.1827 13.75 16.906 13.0608 16.766 11.8783L16.7268 11.5092C16.7211 11.4439 16.7158 11.3786 16.711 11.3133L16.686 10.9017C16.6828 10.8297 16.68 10.7578 16.6777 10.6858L16.6677 10.235V9.765L16.6777 9.31417L16.686 9.0975L16.711 8.68667L16.7277 8.49083L16.7652 8.12167C16.906 6.93833 17.1818 6.25 17.4993 6.25Z" fill="#333333"/>
</g>
<defs>
<clipPath id="clip0_666_14664">
<rect width="20" height="20" fill="white"/>
</clipPath>
</defs>
</svg>
