<svg width="516" height="404" viewBox="0 0 516 404" fill="none" xmlns="http://www.w3.org/2000/svg">
<rect width="516" height="404" rx="12" fill="#F2F2F2"/>
<g filter="url(#filter0_i_666_14773)">
<rect x="164" y="179" width="188" height="46" rx="23" fill="#2F80ED"/>
<path d="M200.848 207L195.824 195.72H198.016L201.744 204.376L205.472 195.72H207.584L202.56 207H200.848ZM208.318 197.496V195.544H210.558V197.496H208.318ZM208.446 207V199.176H210.446V207H208.446ZM216.38 207.16C215.495 207.16 214.732 206.995 214.092 206.664C213.452 206.333 212.956 205.864 212.604 205.256C212.263 204.648 212.092 203.928 212.092 203.096C212.092 202.285 212.258 201.576 212.588 200.968C212.93 200.36 213.394 199.885 213.98 199.544C214.578 199.192 215.255 199.016 216.012 199.016C217.122 199.016 217.996 199.368 218.636 200.072C219.287 200.776 219.612 201.736 219.612 202.952V203.544H214.012C214.162 204.941 214.962 205.64 216.412 205.64C216.85 205.64 217.287 205.576 217.724 205.448C218.162 205.309 218.562 205.096 218.924 204.808L219.484 206.152C219.111 206.461 218.642 206.707 218.076 206.888C217.511 207.069 216.946 207.16 216.38 207.16ZM216.092 200.376C215.506 200.376 215.031 200.557 214.668 200.92C214.306 201.283 214.087 201.773 214.012 202.392H217.948C217.906 201.741 217.724 201.245 217.404 200.904C217.095 200.552 216.658 200.376 216.092 200.376ZM223.231 207L220.143 199.176H222.191L224.191 204.68L226.207 199.176H227.615L229.631 204.712L231.631 199.176H233.567L230.495 207H228.751L226.847 201.96L224.975 207H223.231ZM239.216 207V195.72H243.408C245.296 195.72 246.752 196.205 247.776 197.176C248.811 198.147 249.328 199.539 249.328 201.352C249.328 203.155 248.811 204.547 247.776 205.528C246.752 206.509 245.296 207 243.408 207H239.216ZM241.264 205.304H243.28C245.883 205.304 247.184 203.987 247.184 201.352C247.184 198.728 245.883 197.416 243.28 197.416H241.264V205.304ZM251.212 207V199.176H253.164V200.552C253.548 199.624 254.369 199.112 255.628 199.016L256.236 198.968L256.364 200.664L255.212 200.776C253.9 200.904 253.244 201.576 253.244 202.792V207H251.212ZM257.35 197.496V195.544H259.59V197.496H257.35ZM257.478 207V199.176H259.478V207H257.478ZM266.068 207.16C265.492 207.16 264.974 207.032 264.516 206.776C264.068 206.52 263.732 206.173 263.508 205.736V207H261.556V195.72H263.556V200.328C263.79 199.933 264.126 199.619 264.564 199.384C265.012 199.139 265.513 199.016 266.068 199.016C266.761 199.016 267.364 199.181 267.876 199.512C268.388 199.843 268.788 200.312 269.076 200.92C269.364 201.517 269.508 202.237 269.508 203.08C269.508 203.912 269.364 204.637 269.076 205.256C268.788 205.864 268.382 206.333 267.86 206.664C267.348 206.995 266.75 207.16 266.068 207.16ZM265.508 205.64C266.105 205.64 266.585 205.427 266.948 205C267.31 204.563 267.492 203.923 267.492 203.08C267.492 202.227 267.31 201.592 266.948 201.176C266.585 200.749 266.105 200.536 265.508 200.536C264.91 200.536 264.43 200.749 264.068 201.176C263.705 201.592 263.524 202.227 263.524 203.08C263.524 203.923 263.705 204.563 264.068 205C264.43 205.427 264.91 205.64 265.508 205.64ZM275.661 207.16C275.085 207.16 274.568 207.032 274.109 206.776C273.661 206.52 273.325 206.173 273.101 205.736V207H271.149V195.72H273.149V200.328C273.384 199.933 273.72 199.619 274.157 199.384C274.605 199.139 275.107 199.016 275.661 199.016C276.355 199.016 276.957 199.181 277.469 199.512C277.981 199.843 278.381 200.312 278.669 200.92C278.957 201.517 279.101 202.237 279.101 203.08C279.101 203.912 278.957 204.637 278.669 205.256C278.381 205.864 277.976 206.333 277.453 206.664C276.941 206.995 276.344 207.16 275.661 207.16ZM275.101 205.64C275.699 205.64 276.179 205.427 276.541 205C276.904 204.563 277.085 203.923 277.085 203.08C277.085 202.227 276.904 201.592 276.541 201.176C276.179 200.749 275.699 200.536 275.101 200.536C274.504 200.536 274.024 200.749 273.661 201.176C273.299 201.592 273.117 202.227 273.117 203.08C273.117 203.923 273.299 204.563 273.661 205C274.024 205.427 274.504 205.64 275.101 205.64ZM283.463 207.16C282.535 207.16 281.847 206.909 281.399 206.408C280.962 205.896 280.743 205.149 280.743 204.168V195.72H282.743V204.072C282.743 205.032 283.148 205.512 283.959 205.512C284.076 205.512 284.194 205.507 284.311 205.496C284.428 205.485 284.54 205.464 284.647 205.432L284.615 207.016C284.231 207.112 283.847 207.16 283.463 207.16ZM289.63 207.16C288.745 207.16 287.982 206.995 287.342 206.664C286.702 206.333 286.206 205.864 285.854 205.256C285.513 204.648 285.342 203.928 285.342 203.096C285.342 202.285 285.508 201.576 285.838 200.968C286.18 200.36 286.644 199.885 287.23 199.544C287.828 199.192 288.505 199.016 289.262 199.016C290.372 199.016 291.246 199.368 291.886 200.072C292.537 200.776 292.862 201.736 292.862 202.952V203.544H287.262C287.412 204.941 288.212 205.64 289.662 205.64C290.1 205.64 290.537 205.576 290.974 205.448C291.412 205.309 291.812 205.096 292.174 204.808L292.734 206.152C292.361 206.461 291.892 206.707 291.326 206.888C290.761 207.069 290.196 207.16 289.63 207.16ZM289.342 200.376C288.756 200.376 288.281 200.557 287.918 200.92C287.556 201.283 287.337 201.773 287.262 202.392H291.198C291.156 201.741 290.974 201.245 290.654 200.904C290.345 200.552 289.908 200.376 289.342 200.376Z" fill="white"/>
<path d="M304 201C303.448 201 303 201.448 303 202C303 202.552 303.448 203 304 203L304 201ZM320.707 202.707C321.098 202.317 321.098 201.683 320.707 201.293L314.343 194.929C313.953 194.538 313.319 194.538 312.929 194.929C312.538 195.319 312.538 195.953 312.929 196.343L318.586 202L312.929 207.657C312.538 208.047 312.538 208.681 312.929 209.071C313.319 209.462 313.953 209.462 314.343 209.071L320.707 202.707ZM304 203L320 203L320 201L304 201L304 203Z" fill="white"/>
</g>
<defs>
<filter id="filter0_i_666_14773" x="164" y="179" width="189" height="47" filterUnits="userSpaceOnUse" color-interpolation-filters="sRGB">
<feFlood flood-opacity="0" result="BackgroundImageFix"/>
<feBlend mode="normal" in="SourceGraphic" in2="BackgroundImageFix" result="shape"/>
<feColorMatrix in="SourceAlpha" type="matrix" values="0 0 0 0 0 0 0 0 0 0 0 0 0 0 0 0 0 0 127 0" result="hardAlpha"/>
<feOffset dx="1" dy="1"/>
<feGaussianBlur stdDeviation="6"/>
<feComposite in2="hardAlpha" operator="arithmetic" k2="-1" k3="1"/>
<feColorMatrix type="matrix" values="0 0 0 0 1 0 0 0 0 1 0 0 0 0 1 0 0 0 0.08 0"/>
<feBlend mode="normal" in2="shape" result="effect1_innerShadow_666_14773"/>
</filter>
</defs>
</svg>
