<svg width="20" height="20" viewBox="0 0 20 20" fill="none" xmlns="http://www.w3.org/2000/svg">
<path d="M6.20315 4.45801C6.73565 4.45801 7.22815 4.49967 7.67815 4.62301C8.12898 4.70551 8.49815 4.87051 8.82565 5.07634C9.15398 5.28217 9.39982 5.57134 9.56315 5.94217C9.72732 6.31301 9.80982 6.76717 9.80982 7.26134C9.80982 7.83884 9.68648 8.33301 9.39982 8.70384C9.15398 9.07551 8.74398 9.40468 8.25232 9.65218C8.94898 9.85884 9.48148 10.2297 9.80982 10.7238C10.1373 11.2188 10.3423 11.8372 10.3423 12.538C10.3423 13.1155 10.219 13.6097 10.014 14.0222C9.80982 14.4347 9.48148 14.8055 9.11232 15.053C8.71131 15.3183 8.26802 15.5133 7.80148 15.6297C7.30982 15.7538 6.81815 15.8363 6.32648 15.8363H0.833984V4.45801H6.20315ZM5.87482 9.07468C6.32565 9.07468 6.69482 8.95134 6.98148 8.74551C7.26815 8.53968 7.39148 8.16801 7.39148 7.71468C7.39148 7.46718 7.34982 7.21968 7.26815 7.05551C7.18648 6.89051 7.06315 6.76634 6.89982 6.64301C6.73274 6.54937 6.55315 6.48006 6.36648 6.43717C6.16148 6.39551 5.95732 6.39551 5.71065 6.39551H3.33398V9.07551L5.87482 9.07468ZM5.99815 13.9397C6.24398 13.9397 6.48982 13.898 6.69482 13.8572C6.89982 13.8155 7.10482 13.7338 7.26815 13.6097C7.43514 13.489 7.57484 13.3346 7.67815 13.1563C7.75982 12.9505 7.84232 12.703 7.84232 12.4147C7.84232 11.8372 7.67815 11.4247 7.35065 11.1363C7.02232 10.8888 6.57148 10.7655 6.03898 10.7655H3.33398V13.9405L5.99815 13.9397ZM13.9081 13.898C14.2357 14.228 14.7273 14.393 15.3832 14.393C15.834 14.393 16.244 14.2697 16.5715 14.0638C16.8998 13.8163 17.1048 13.5688 17.1865 13.3213H19.1948C18.8665 14.3105 18.3748 15.0113 17.7198 15.4647C17.0632 15.8772 16.2848 16.1247 15.3423 16.1247C14.7393 16.1265 14.1413 16.0146 13.5798 15.7947C13.0745 15.6052 12.624 15.2937 12.2682 14.888C11.8876 14.5085 11.6062 14.0411 11.449 13.5272C11.244 12.9913 11.1615 12.4147 11.1615 11.7547C11.1615 11.1363 11.244 10.5597 11.449 10.023C11.6463 9.50635 11.9383 9.03101 12.3098 8.62134C12.6782 8.25051 13.129 7.92134 13.6207 7.71468C14.1679 7.49473 14.7525 7.38267 15.3423 7.38468C16.039 7.38468 16.654 7.50884 17.1865 7.79718C17.7198 8.08551 18.129 8.41551 18.4565 8.91051C18.7848 9.36384 19.0315 9.89968 19.1948 10.4772C19.2765 11.0538 19.3173 11.6313 19.2765 12.2905H13.334C13.334 12.9505 13.5798 13.5688 13.9081 13.8988M16.4898 9.57051C16.2032 9.28218 15.7523 9.11718 15.219 9.11718C14.9063 9.11249 14.597 9.18308 14.3173 9.32301C14.0715 9.44718 13.9082 9.61218 13.744 9.77718C13.5931 9.93655 13.4933 10.1374 13.4573 10.3538C13.4157 10.5605 13.3748 10.7247 13.3748 10.8897H17.0632C16.9815 10.2713 16.7765 9.85968 16.4898 9.57051ZM12.8832 5.24134H17.4732V6.35467H12.884L12.8832 5.24134Z" fill="#2F80ED"/>
</svg>
