<svg width="20" height="20" viewBox="0 0 20 20" fill="none" xmlns="http://www.w3.org/2000/svg">
<path d="M18.3327 10.0003C18.3341 11.098 18.118 12.185 17.6968 13.1986C17.2756 14.2122 16.6578 15.1323 15.8789 15.9057C15.1065 16.6769 14.1896 17.2882 13.1808 17.7048C12.1719 18.1214 11.0908 18.3351 9.99936 18.3337C5.39686 18.3337 1.66602 14.6028 1.66602 10.0003C1.66311 7.86357 2.48389 5.8079 3.95769 4.26075C4.73533 3.44017 5.67224 2.78689 6.71108 2.34091C7.74992 1.89492 8.86883 1.66561 9.99936 1.667C11.0908 1.66559 12.1719 1.87928 13.1808 2.29588C14.1896 2.71247 15.1065 3.3238 15.8789 4.09492C16.6578 4.86834 17.2756 5.78845 17.6968 6.80206C18.118 7.81568 18.3341 8.9027 18.3327 10.0003Z" stroke="#333333" stroke-linecap="round" stroke-linejoin="round"/>
<path d="M18.3331 9.99998C17.1173 9.99998 13.7631 9.54165 10.761 10.8596C7.49979 12.2916 5.13854 14.5133 4.10938 15.8946" stroke="#333333" stroke-linecap="round" stroke-linejoin="round"/>
<path d="M6.875 2.27246C8.17917 3.47621 11.025 6.54079 12.0833 9.58329C13.1417 12.6258 13.5333 16.3666 13.775 17.4312" stroke="#333333" stroke-linecap="round" stroke-linejoin="round"/>
<path d="M1.73047 8.95879C3.30464 9.05379 7.47172 9.13921 10.1384 8.00046C12.8051 6.86171 15.0996 4.76712 15.8867 4.10254M2.2913 13.1725C3.0256 14.95 4.34993 16.4201 6.0413 17.3355" stroke="#333333" stroke-linecap="round" stroke-linejoin="round"/>
<path d="M1.66602 10.0003C1.66311 7.86357 2.48389 5.8079 3.95769 4.26075C4.73533 3.44016 5.67224 2.78689 6.71108 2.34091C7.74992 1.89492 8.86883 1.66561 9.99936 1.667M13.3327 2.36033C14.2817 2.77556 15.1451 3.36376 15.8789 4.09492C16.6578 4.86834 17.2756 5.78845 17.6968 6.80206C18.118 7.81567 18.3341 8.9027 18.3327 10.0003C18.3327 11.0262 18.1473 12.0091 17.8077 12.917M9.99936 18.3337C11.0908 18.3351 12.1719 18.1214 13.1808 17.7048C14.1896 17.2882 15.1065 16.6769 15.8789 15.9057" stroke="#333333" stroke-linecap="round" stroke-linejoin="round"/>
</svg>
