<svg width="12" height="15" viewBox="0 0 12 15" fill="none" xmlns="http://www.w3.org/2000/svg">
<path d="M6 3.375C7.42188 3.375 8.625 4.57812 8.625 6C8.625 7.44922 7.42188 8.625 6 8.625C4.55078 8.625 3.375 7.44922 3.375 6C3.375 4.57812 4.55078 3.375 6 3.375ZM6 7.75C6.95703 7.75 7.75 6.98438 7.75 6C7.75 5.04297 6.95703 4.25 6 4.25C5.01562 4.25 4.25 5.04297 4.25 6C4.25 6.98438 5.01562 7.75 6 7.75ZM6 0.75C8.89844 0.75 11.25 3.10156 11.25 6C11.25 8.13281 10.5117 8.73438 6.51953 14.4766C6.27344 14.8594 5.69922 14.8594 5.45312 14.4766C1.46094 8.73438 0.75 8.13281 0.75 6C0.75 3.10156 3.07422 0.75 6 0.75ZM6 13.7109C9.80078 8.21484 10.375 7.77734 10.375 6C10.375 4.85156 9.91016 3.75781 9.08984 2.91016C8.24219 2.08984 7.14844 1.625 6 1.625C4.82422 1.625 3.73047 2.08984 2.88281 2.91016C2.0625 3.75781 1.625 4.85156 1.625 6C1.625 7.77734 2.17188 8.21484 6 13.7109Z" fill="#333333"/>
</svg>
