<svg width="15" height="15" viewBox="0 0 15 15" fill="none" xmlns="http://www.w3.org/2000/svg">
<path d="M14.3164 1.43359C14.7266 1.51562 15 1.84375 15 2.25391C15 9.17188 9.36719 14.75 2.47656 14.75C2.06641 14.75 1.73828 14.4766 1.65625 14.0938L1 11.332C0.917969 10.9492 1.13672 10.5391 1.49219 10.375L4.47266 9.08984C4.82812 8.95312 5.23828 9.03516 5.45703 9.33594L6.66016 10.8125C8.57422 9.88281 10.1055 8.35156 11.0352 6.4375L9.55859 5.23438C9.25781 5.01562 9.17578 4.60547 9.3125 4.25L10.5977 1.26953C10.7617 0.886719 11.1719 0.695312 11.582 0.777344L14.3164 1.43359ZM2.50391 13.875C8.90234 13.875 14.0977 8.67969 14.0977 2.28125L11.3906 1.65234L10.1328 4.57812L12.1289 6.21875C10.7891 9.03516 9.25781 10.5664 6.44141 11.9062L4.80078 9.91016L1.875 11.168L2.50391 13.875Z" fill="#333333"/>
</svg>
