<svg width="119" height="35" viewBox="0 0 119 35" fill="none" xmlns="http://www.w3.org/2000/svg">
<rect width="119" height="35" rx="17.5" fill="#333333"/>
<path d="M22.125 21.5156C22.5352 21.5156 22.8906 21.1875 22.8906 20.75V19C22.8906 18.5898 22.5352 18.2344 22.125 18.2344C21.6875 18.2344 21.3594 18.5898 21.3594 19V20.75C21.3594 21.1875 21.6875 21.5156 22.125 21.5156ZM28.25 16.8125C28.25 16.1016 27.6484 15.5 26.9375 15.5H26.0625V14.2422C26.0625 12.0547 24.3125 10.2773 22.125 10.25C19.9375 10.25 18.1875 12.0273 18.1875 14.1875V15.5H17.3125C16.5742 15.5 16 16.1016 16 16.8125V22.9375C16 23.6758 16.5742 24.25 17.3125 24.25H26.9375C27.6484 24.25 28.25 23.6758 28.25 22.9375V16.8125ZM19.5 15.5V14.1875C19.5 12.7656 20.6758 11.5625 22.125 11.5625C23.5469 11.5625 24.75 12.7656 24.75 14.1875V15.5H19.5ZM26.9375 16.8125V22.9375H17.3125V16.8125H26.9375Z" fill="white"/>
<path d="M41.546 13.088C41.7607 13.0973 42.036 13.1067 42.372 13.116C42.7173 13.1253 43.058 13.13 43.394 13.13C43.842 13.13 44.2667 13.1253 44.668 13.116C45.0787 13.1067 45.368 13.102 45.536 13.102C46.7213 13.102 47.608 13.3587 48.196 13.872C48.784 14.3853 49.078 15.048 49.078 15.86C49.078 16.196 49.0173 16.5507 48.896 16.924C48.784 17.288 48.5833 17.6287 48.294 17.946C48.0047 18.254 47.6127 18.506 47.118 18.702C46.6233 18.898 45.9933 18.996 45.228 18.996H43.856V18.716H45.088C45.7133 18.716 46.1893 18.59 46.516 18.338C46.852 18.086 47.076 17.7547 47.188 17.344C47.3093 16.9333 47.37 16.49 47.37 16.014C47.37 15.1273 47.2113 14.4647 46.894 14.026C46.5767 13.5873 46.026 13.368 45.242 13.368C44.8407 13.368 44.5747 13.4473 44.444 13.606C44.3227 13.7647 44.262 14.0867 44.262 14.572V21.488C44.262 21.8333 44.2993 22.0947 44.374 22.272C44.4487 22.44 44.5887 22.552 44.794 22.608C44.9993 22.664 45.3027 22.6967 45.704 22.706V23C45.452 22.9813 45.1253 22.972 44.724 22.972C44.3227 22.9627 43.9073 22.958 43.478 22.958C43.1047 22.958 42.7453 22.9627 42.4 22.972C42.064 22.972 41.7793 22.9813 41.546 23V22.72C41.8633 22.7013 42.1013 22.664 42.26 22.608C42.4187 22.552 42.5213 22.44 42.568 22.272C42.624 22.104 42.652 21.852 42.652 21.516V14.572C42.652 14.2267 42.624 13.9747 42.568 13.816C42.5213 13.648 42.414 13.536 42.246 13.48C42.0873 13.4147 41.854 13.3773 41.546 13.368V13.088ZM54.3489 15.58C54.6196 15.58 54.8482 15.636 55.0349 15.748C55.2309 15.86 55.3756 16.0047 55.4689 16.182C55.5716 16.35 55.6229 16.5413 55.6229 16.756C55.6229 17.0267 55.5389 17.26 55.3709 17.456C55.2122 17.6427 54.9976 17.736 54.7269 17.736C54.4936 17.736 54.2929 17.666 54.1249 17.526C53.9662 17.386 53.8869 17.1947 53.8869 16.952C53.8869 16.7467 53.9382 16.574 54.0409 16.434C54.1529 16.2847 54.2789 16.168 54.4189 16.084C54.3256 16.0093 54.2136 15.9767 54.0829 15.986C53.8309 15.9953 53.5976 16.0793 53.3829 16.238C53.1682 16.3873 52.9862 16.5833 52.8369 16.826C52.6876 17.0593 52.5709 17.3113 52.4869 17.582C52.4029 17.8527 52.3609 18.1047 52.3609 18.338V21.558C52.3609 22.0153 52.4869 22.3233 52.7389 22.482C52.9909 22.6313 53.3409 22.706 53.7889 22.706V23C53.5742 22.9907 53.2662 22.9813 52.8649 22.972C52.4729 22.9533 52.0576 22.944 51.6189 22.944C51.2829 22.944 50.9469 22.9533 50.6109 22.972C50.2749 22.9813 50.0182 22.9907 49.8409 23V22.706C50.2049 22.706 50.4616 22.636 50.6109 22.496C50.7696 22.356 50.8489 22.09 50.8489 21.698V17.302C50.8489 16.882 50.7789 16.574 50.6389 16.378C50.4989 16.1727 50.2329 16.07 49.8409 16.07V15.776C50.1396 15.804 50.4289 15.818 50.7089 15.818C51.0262 15.818 51.3202 15.804 51.5909 15.776C51.8709 15.7387 52.1276 15.6873 52.3609 15.622V17.232C52.4729 16.9613 52.6222 16.7 52.8089 16.448C52.9956 16.196 53.2196 15.9907 53.4809 15.832C53.7422 15.664 54.0316 15.58 54.3489 15.58ZM59.4249 15.58C60.0502 15.58 60.6055 15.7107 61.0909 15.972C61.5762 16.2333 61.9635 16.644 62.2529 17.204C62.5422 17.764 62.6869 18.4967 62.6869 19.402C62.6869 20.3073 62.5422 21.04 62.2529 21.6C61.9635 22.1507 61.5762 22.5567 61.0909 22.818C60.6055 23.07 60.0502 23.196 59.4249 23.196C58.8089 23.196 58.2535 23.07 57.7589 22.818C57.2642 22.5567 56.8722 22.1507 56.5829 21.6C56.3029 21.04 56.1629 20.3073 56.1629 19.402C56.1629 18.4967 56.3029 17.764 56.5829 17.204C56.8722 16.644 57.2642 16.2333 57.7589 15.972C58.2535 15.7107 58.8089 15.58 59.4249 15.58ZM59.4249 15.86C58.9395 15.86 58.5429 16.14 58.2349 16.7C57.9269 17.2507 57.7729 18.1513 57.7729 19.402C57.7729 20.6527 57.9269 21.5533 58.2349 22.104C58.5429 22.6453 58.9395 22.916 59.4249 22.916C59.9009 22.916 60.2929 22.6453 60.6009 22.104C60.9182 21.5533 61.0769 20.6527 61.0769 19.402C61.0769 18.1513 60.9182 17.2507 60.6009 16.7C60.2929 16.14 59.9009 15.86 59.4249 15.86ZM66.1268 13.466V15.79H68.0588V16.07H66.1268V21.572C66.1268 21.9547 66.1968 22.2253 66.3368 22.384C66.4768 22.5427 66.6775 22.622 66.9388 22.622C67.1815 22.622 67.3962 22.524 67.5828 22.328C67.7788 22.132 67.9468 21.8007 68.0868 21.334L68.3528 21.432C68.2408 21.9267 68.0402 22.3467 67.7508 22.692C67.4708 23.028 67.0555 23.196 66.5048 23.196C66.1875 23.196 65.9215 23.154 65.7068 23.07C65.4922 22.9953 65.3055 22.8833 65.1468 22.734C64.9415 22.5193 64.8015 22.2627 64.7268 21.964C64.6522 21.6653 64.6148 21.2687 64.6148 20.774V16.07H63.3268V15.79H64.6148V13.746C64.9042 13.7367 65.1748 13.7133 65.4268 13.676C65.6788 13.6293 65.9122 13.5593 66.1268 13.466ZM72.0707 15.58C72.892 15.58 73.536 15.8273 74.0027 16.322C74.4694 16.8167 74.7027 17.6007 74.7027 18.674H69.8727L69.8447 18.408H73.2187C73.228 17.9507 73.1907 17.5307 73.1067 17.148C73.0227 16.756 72.892 16.4433 72.7147 16.21C72.5374 15.9767 72.304 15.86 72.0147 15.86C71.6134 15.86 71.2634 16.0747 70.9647 16.504C70.6754 16.924 70.498 17.6007 70.4327 18.534L70.4747 18.604C70.4654 18.7347 70.456 18.8793 70.4467 19.038C70.4374 19.1873 70.4327 19.3367 70.4327 19.486C70.4327 20.13 70.5307 20.6713 70.7267 21.11C70.9227 21.5487 71.1794 21.88 71.4967 22.104C71.814 22.3187 72.136 22.426 72.4627 22.426C72.7147 22.426 72.9574 22.3887 73.1907 22.314C73.4334 22.23 73.662 22.0947 73.8767 21.908C74.0914 21.712 74.2827 21.446 74.4507 21.11L74.7307 21.222C74.6187 21.5393 74.446 21.852 74.2127 22.16C73.9794 22.468 73.6807 22.72 73.3167 22.916C72.9527 23.1027 72.528 23.196 72.0427 23.196C71.3894 23.196 70.82 23.0513 70.3347 22.762C69.8494 22.4633 69.476 22.0387 69.2147 21.488C68.9534 20.9373 68.8227 20.284 68.8227 19.528C68.8227 18.6973 68.958 17.988 69.2287 17.4C69.4994 16.812 69.8774 16.364 70.3627 16.056C70.8574 15.7387 71.4267 15.58 72.0707 15.58ZM79.2231 15.58C79.5404 15.58 79.8437 15.622 80.1331 15.706C80.4224 15.7807 80.6744 15.888 80.8891 16.028C81.1131 16.168 81.2811 16.336 81.3931 16.532C81.5144 16.728 81.5751 16.9427 81.5751 17.176C81.5751 17.456 81.4957 17.6753 81.3371 17.834C81.1784 17.9927 80.9731 18.072 80.7211 18.072C80.4691 18.072 80.2591 18.002 80.0911 17.862C79.9231 17.722 79.8391 17.5213 79.8391 17.26C79.8391 17.0173 79.9091 16.8213 80.0491 16.672C80.1891 16.5133 80.3524 16.4107 80.5391 16.364C80.4551 16.224 80.3057 16.1073 80.0911 16.014C79.8857 15.9113 79.6617 15.86 79.4191 15.86C79.1671 15.86 78.9244 15.9253 78.6911 16.056C78.4671 16.1867 78.2664 16.3873 78.0891 16.658C77.9117 16.9287 77.7671 17.2787 77.6551 17.708C77.5524 18.1373 77.5011 18.6553 77.5011 19.262C77.5011 20.046 77.5897 20.6713 77.7671 21.138C77.9537 21.5953 78.1964 21.922 78.4951 22.118C78.7937 22.314 79.1157 22.412 79.4611 22.412C79.6851 22.412 79.9137 22.37 80.1471 22.286C80.3897 22.202 80.6184 22.062 80.8331 21.866C81.0571 21.67 81.2531 21.404 81.4211 21.068L81.6871 21.166C81.5844 21.474 81.4211 21.7867 81.1971 22.104C80.9824 22.4213 80.6977 22.6827 80.3431 22.888C79.9884 23.0933 79.5544 23.196 79.0411 23.196C78.4531 23.196 77.9211 23.0513 77.4451 22.762C76.9691 22.4727 76.5911 22.0527 76.3111 21.502C76.0311 20.942 75.8911 20.2607 75.8911 19.458C75.8911 18.674 76.0311 17.9927 76.3111 17.414C76.6004 16.826 76.9971 16.3733 77.5011 16.056C78.0051 15.7387 78.5791 15.58 79.2231 15.58ZM84.9667 13.466V15.79H86.8987V16.07H84.9667V21.572C84.9667 21.9547 85.0367 22.2253 85.1767 22.384C85.3167 22.5427 85.5173 22.622 85.7787 22.622C86.0213 22.622 86.236 22.524 86.4227 22.328C86.6187 22.132 86.7867 21.8007 86.9267 21.334L87.1927 21.432C87.0807 21.9267 86.88 22.3467 86.5907 22.692C86.3107 23.028 85.8953 23.196 85.3447 23.196C85.0273 23.196 84.7613 23.154 84.5467 23.07C84.332 22.9953 84.1453 22.8833 83.9867 22.734C83.7813 22.5193 83.6413 22.2627 83.5667 21.964C83.492 21.6653 83.4547 21.2687 83.4547 20.774V16.07H82.1667V15.79H83.4547V13.746C83.744 13.7367 84.0147 13.7133 84.2667 13.676C84.5187 13.6293 84.752 13.5593 84.9667 13.466ZM90.9105 15.58C91.7319 15.58 92.3759 15.8273 92.8425 16.322C93.3092 16.8167 93.5425 17.6007 93.5425 18.674H88.7125L88.6845 18.408H92.0585C92.0679 17.9507 92.0305 17.5307 91.9465 17.148C91.8625 16.756 91.7319 16.4433 91.5545 16.21C91.3772 15.9767 91.1439 15.86 90.8545 15.86C90.4532 15.86 90.1032 16.0747 89.8045 16.504C89.5152 16.924 89.3379 17.6007 89.2725 18.534L89.3145 18.604C89.3052 18.7347 89.2959 18.8793 89.2865 19.038C89.2772 19.1873 89.2725 19.3367 89.2725 19.486C89.2725 20.13 89.3705 20.6713 89.5665 21.11C89.7625 21.5487 90.0192 21.88 90.3365 22.104C90.6539 22.3187 90.9759 22.426 91.3025 22.426C91.5545 22.426 91.7972 22.3887 92.0305 22.314C92.2732 22.23 92.5019 22.0947 92.7165 21.908C92.9312 21.712 93.1225 21.446 93.2905 21.11L93.5705 21.222C93.4585 21.5393 93.2859 21.852 93.0525 22.16C92.8192 22.468 92.5205 22.72 92.1565 22.916C91.7925 23.1027 91.3679 23.196 90.8825 23.196C90.2292 23.196 89.6599 23.0513 89.1745 22.762C88.6892 22.4633 88.3159 22.0387 88.0545 21.488C87.7932 20.9373 87.6625 20.284 87.6625 19.528C87.6625 18.6973 87.7979 17.988 88.0685 17.4C88.3392 16.812 88.7172 16.364 89.2025 16.056C89.6972 15.7387 90.2665 15.58 90.9105 15.58ZM101.059 12.024V21.474C101.059 21.894 101.129 22.2067 101.269 22.412C101.418 22.608 101.684 22.706 102.067 22.706V23C101.778 22.972 101.488 22.958 101.199 22.958C100.882 22.958 100.583 22.972 100.303 23C100.032 23.028 99.7802 23.0793 99.5469 23.154V13.704C99.5469 13.284 99.4722 12.976 99.3229 12.78C99.1829 12.5747 98.9216 12.472 98.5389 12.472V12.178C98.8376 12.206 99.1269 12.22 99.4069 12.22C99.7149 12.22 100.009 12.206 100.289 12.178C100.569 12.1407 100.826 12.0893 101.059 12.024ZM97.9089 15.58C98.3196 15.58 98.6929 15.6687 99.0289 15.846C99.3742 16.0233 99.6169 16.322 99.7569 16.742L99.5889 16.896C99.4582 16.56 99.2669 16.3173 99.0149 16.168C98.7629 16.0093 98.4782 15.93 98.1609 15.93C97.6289 15.93 97.1949 16.2147 96.8589 16.784C96.5229 17.344 96.3596 18.212 96.3689 19.388C96.3689 20.1627 96.4342 20.7973 96.5649 21.292C96.6956 21.7773 96.8869 22.1367 97.1389 22.37C97.4002 22.6033 97.7129 22.72 98.0769 22.72C98.4409 22.72 98.7676 22.566 99.0569 22.258C99.3556 21.95 99.5329 21.5067 99.5889 20.928L99.7149 21.222C99.6216 21.8567 99.3976 22.3467 99.0429 22.692C98.6882 23.028 98.2122 23.196 97.6149 23.196C97.0456 23.196 96.5416 23.0607 96.1029 22.79C95.6736 22.51 95.3422 22.09 95.1089 21.53C94.8756 20.9607 94.7589 20.2467 94.7589 19.388C94.7589 18.5387 94.8989 17.834 95.1789 17.274C95.4682 16.7047 95.8509 16.28 96.3269 16C96.8029 15.72 97.3302 15.58 97.9089 15.58Z" fill="white"/>
</svg>
