<svg width="161" height="56" viewBox="0 0 161 56" fill="none" xmlns="http://www.w3.org/2000/svg">
<path d="M-2.38419e-05 0L11.6641 11.6641H4.37401L-2.38419e-05 16.0381V0Z" fill="#0E84C5"/>
<g filter="url(#filter0_b_667_21704)">
<rect x="11.916" y="15.7461" width="149" height="40" rx="6.99845" fill="#1DA6F2" fill-opacity="0.12"/>
<path d="M33.756 40.8901C32.2733 40.8901 31.148 40.5008 30.38 39.7221C29.612 38.9328 29.228 37.7861 29.228 36.2821V29.4661H30.54V36.2181C30.54 38.5541 31.612 39.7221 33.756 39.7221C35.8787 39.7221 36.94 38.5541 36.94 36.2181V29.4661H38.252V36.2821C38.252 37.7861 37.868 38.9328 37.1 39.7221C36.3427 40.5008 35.228 40.8901 33.756 40.8901ZM43.3966 40.8901C42.7886 40.8901 42.2126 40.8048 41.6686 40.6341C41.1246 40.4634 40.6766 40.2234 40.3246 39.9141L40.7406 39.0021C41.1246 39.3114 41.546 39.5408 42.0046 39.6901C42.474 39.8288 42.9486 39.8981 43.4286 39.8981C44.0366 39.8981 44.4953 39.7861 44.8046 39.5621C45.114 39.3381 45.2686 39.0341 45.2686 38.6501C45.2686 38.3514 45.1673 38.1168 44.9646 37.9461C44.762 37.7648 44.442 37.6261 44.0046 37.5301L42.5486 37.2101C41.226 36.9221 40.5646 36.2394 40.5646 35.1621C40.5646 34.4581 40.842 33.8928 41.3966 33.4661C41.962 33.0394 42.698 32.8261 43.6046 32.8261C44.138 32.8261 44.6446 32.9114 45.1246 33.0821C45.6153 33.2421 46.0206 33.4821 46.3406 33.8021L45.9086 34.7141C45.5993 34.4261 45.2366 34.2074 44.8206 34.0581C44.4153 33.8981 44.01 33.8181 43.6046 33.8181C43.0073 33.8181 42.554 33.9354 42.2446 34.1701C41.9353 34.4048 41.7806 34.7141 41.7806 35.0981C41.7806 35.6954 42.1753 36.0794 42.9646 36.2501L44.4206 36.5541C45.1033 36.7034 45.6206 36.9434 45.9726 37.2741C46.3246 37.5941 46.5006 38.0314 46.5006 38.5861C46.5006 39.3008 46.218 39.8661 45.6526 40.2821C45.0873 40.6874 44.3353 40.8901 43.3966 40.8901ZM51.9798 40.8901C50.7531 40.8901 49.7824 40.5328 49.0678 39.8181C48.3531 39.0928 47.9958 38.1114 47.9958 36.8741C47.9958 36.0741 48.1558 35.3701 48.4758 34.7621C48.7958 34.1434 49.2331 33.6688 49.7878 33.3381C50.3531 32.9968 51.0038 32.8261 51.7398 32.8261C52.7958 32.8261 53.6224 33.1674 54.2198 33.8501C54.8171 34.5221 55.1158 35.4501 55.1158 36.6341V37.1301H49.2598C49.3024 38.0154 49.5584 38.6928 50.0278 39.1621C50.4971 39.6208 51.1478 39.8501 51.9798 39.8501C52.4491 39.8501 52.8971 39.7808 53.3238 39.6421C53.7504 39.4928 54.1558 39.2528 54.5398 38.9221L54.9878 39.8341C54.6358 40.1648 54.1878 40.4261 53.6438 40.6181C53.0998 40.7994 52.5451 40.8901 51.9798 40.8901ZM51.7718 33.7861C51.0358 33.7861 50.4544 34.0154 50.0278 34.4741C49.6011 34.9328 49.3504 35.5354 49.2758 36.2821H53.9958C53.9638 35.4928 53.7558 34.8794 53.3718 34.4421C52.9984 34.0048 52.4651 33.7861 51.7718 33.7861ZM56.9914 40.7461V32.9701H58.2554V34.3621C58.6714 33.4234 59.5247 32.9061 60.8154 32.8101L61.2794 32.7621L61.3754 33.8821L60.5594 33.9781C59.8234 34.0421 59.2634 34.2768 58.8794 34.6821C58.4954 35.0768 58.3034 35.6208 58.3034 36.3141V40.7461H56.9914ZM67.0111 40.7461V29.4661H74.1311V30.5701H68.2911V34.4741H73.7951V35.5781H68.2911V39.6421H74.1311V40.7461H67.0111ZM75.1713 40.7461L78.4033 36.7301L75.3633 32.9701H76.8993L79.1553 35.8341L81.4273 32.9701H82.9473L79.9073 36.7301L83.1393 40.7461H81.6033L79.1393 37.6581L76.7073 40.7461H75.1713ZM84.5695 43.6261V32.9701H85.8335V34.3621C86.0682 33.8821 86.4148 33.5088 86.8735 33.2421C87.3428 32.9648 87.8868 32.8261 88.5055 32.8261C89.1988 32.8261 89.8015 32.9914 90.3135 33.3221C90.8362 33.6421 91.2362 34.1061 91.5135 34.7141C91.8015 35.3114 91.9455 36.0261 91.9455 36.8581C91.9455 37.6794 91.8015 38.3941 91.5135 39.0021C91.2362 39.5994 90.8362 40.0634 90.3135 40.3941C89.8015 40.7248 89.1988 40.8901 88.5055 40.8901C87.9082 40.8901 87.3748 40.7568 86.9055 40.4901C86.4362 40.2234 86.0895 39.8554 85.8655 39.3861V43.6261H84.5695ZM88.2335 39.8501C88.9588 39.8501 89.5402 39.5941 89.9775 39.0821C90.4148 38.5594 90.6335 37.8181 90.6335 36.8581C90.6335 35.8874 90.4148 35.1461 89.9775 34.6341C89.5402 34.1221 88.9588 33.8661 88.2335 33.8661C87.5082 33.8661 86.9268 34.1221 86.4895 34.6341C86.0522 35.1461 85.8335 35.8874 85.8335 36.8581C85.8335 37.8181 86.0522 38.5594 86.4895 39.0821C86.9268 39.5941 87.5082 39.8501 88.2335 39.8501ZM97.4016 40.8901C96.175 40.8901 95.2043 40.5328 94.4896 39.8181C93.775 39.0928 93.4176 38.1114 93.4176 36.8741C93.4176 36.0741 93.5776 35.3701 93.8976 34.7621C94.2176 34.1434 94.655 33.6688 95.2096 33.3381C95.775 32.9968 96.4256 32.8261 97.1616 32.8261C98.2176 32.8261 99.0443 33.1674 99.6416 33.8501C100.239 34.5221 100.538 35.4501 100.538 36.6341V37.1301H94.6816C94.7243 38.0154 94.9803 38.6928 95.4496 39.1621C95.919 39.6208 96.5696 39.8501 97.4016 39.8501C97.871 39.8501 98.319 39.7808 98.7456 39.6421C99.1723 39.4928 99.5776 39.2528 99.9616 38.9221L100.41 39.8341C100.058 40.1648 99.6096 40.4261 99.0656 40.6181C98.5216 40.7994 97.967 40.8901 97.4016 40.8901ZM97.1936 33.7861C96.4576 33.7861 95.8763 34.0154 95.4496 34.4741C95.023 34.9328 94.7723 35.5354 94.6976 36.2821H99.4176C99.3856 35.4928 99.1776 34.8794 98.7936 34.4421C98.4203 34.0048 97.887 33.7861 97.1936 33.7861ZM102.413 40.7461V32.9701H103.677V34.3621C104.093 33.4234 104.947 32.9061 106.237 32.8101L106.701 32.7621L106.797 33.8821L105.981 33.9781C105.245 34.0421 104.685 34.2768 104.301 34.6821C103.917 35.0768 103.725 35.6208 103.725 36.3141V40.7461H102.413ZM107.988 31.0341V29.5781H109.588V31.0341H107.988ZM108.148 40.7461V32.9701H109.444V40.7461H108.148ZM115.37 40.8901C114.144 40.8901 113.173 40.5328 112.458 39.8181C111.744 39.0928 111.386 38.1114 111.386 36.8741C111.386 36.0741 111.546 35.3701 111.866 34.7621C112.186 34.1434 112.624 33.6688 113.178 33.3381C113.744 32.9968 114.394 32.8261 115.13 32.8261C116.186 32.8261 117.013 33.1674 117.61 33.8501C118.208 34.5221 118.506 35.4501 118.506 36.6341V37.1301H112.65C112.693 38.0154 112.949 38.6928 113.418 39.1621C113.888 39.6208 114.538 39.8501 115.37 39.8501C115.84 39.8501 116.288 39.7808 116.714 39.6421C117.141 39.4928 117.546 39.2528 117.93 38.9221L118.378 39.8341C118.026 40.1648 117.578 40.4261 117.034 40.6181C116.49 40.7994 115.936 40.8901 115.37 40.8901ZM115.162 33.7861C114.426 33.7861 113.845 34.0154 113.418 34.4741C112.992 34.9328 112.741 35.5354 112.666 36.2821H117.386C117.354 35.4928 117.146 34.8794 116.762 34.4421C116.389 34.0048 115.856 33.7861 115.162 33.7861ZM120.382 40.7461V32.9701H121.646V34.2981C121.902 33.8074 122.265 33.4394 122.734 33.1941C123.203 32.9488 123.731 32.8261 124.318 32.8261C126.163 32.8261 127.086 33.8501 127.086 35.8981V40.7461H125.79V35.9781C125.79 35.2528 125.646 34.7248 125.358 34.3941C125.081 34.0528 124.633 33.8821 124.014 33.8821C123.299 33.8821 122.729 34.1061 122.302 34.5541C121.886 34.9914 121.678 35.5781 121.678 36.3141V40.7461H120.382ZM132.772 40.8901C131.993 40.8901 131.321 40.7248 130.756 40.3941C130.19 40.0528 129.753 39.5781 129.444 38.9701C129.145 38.3514 128.996 37.6314 128.996 36.8101C128.996 35.5728 129.332 34.6021 130.004 33.8981C130.676 33.1834 131.598 32.8261 132.772 32.8261C133.252 32.8261 133.726 32.9114 134.196 33.0821C134.665 33.2528 135.054 33.4928 135.364 33.8021L134.916 34.7461C134.606 34.4474 134.265 34.2288 133.892 34.0901C133.529 33.9514 133.182 33.8821 132.852 33.8821C132.041 33.8821 131.417 34.1381 130.98 34.6501C130.542 35.1514 130.324 35.8768 130.324 36.8261C130.324 37.7541 130.542 38.4901 130.98 39.0341C131.417 39.5674 132.041 39.8341 132.852 39.8341C133.182 39.8341 133.529 39.7648 133.892 39.6261C134.265 39.4874 134.606 39.2634 134.916 38.9541L135.364 39.8981C135.054 40.2074 134.66 40.4528 134.18 40.6341C133.71 40.8048 133.241 40.8901 132.772 40.8901ZM140.23 40.8901C139.003 40.8901 138.032 40.5328 137.318 39.8181C136.603 39.0928 136.246 38.1114 136.246 36.8741C136.246 36.0741 136.406 35.3701 136.726 34.7621C137.046 34.1434 137.483 33.6688 138.038 33.3381C138.603 32.9968 139.254 32.8261 139.99 32.8261C141.046 32.8261 141.872 33.1674 142.47 33.8501C143.067 34.5221 143.366 35.4501 143.366 36.6341V37.1301H137.51C137.552 38.0154 137.808 38.6928 138.278 39.1621C138.747 39.6208 139.398 39.8501 140.23 39.8501C140.699 39.8501 141.147 39.7808 141.574 39.6421C142 39.4928 142.406 39.2528 142.79 38.9221L143.238 39.8341C142.886 40.1648 142.438 40.4261 141.894 40.6181C141.35 40.7994 140.795 40.8901 140.23 40.8901ZM140.022 33.7861C139.286 33.7861 138.704 34.0154 138.278 34.4741C137.851 34.9328 137.6 35.5354 137.526 36.2821H142.246C142.214 35.4928 142.006 34.8794 141.622 34.4421C141.248 34.0048 140.715 33.7861 140.022 33.7861Z" fill="#0E84C5"/>
</g>
<defs>
<filter id="filter0_b_667_21704" x="9.5832" y="13.4133" width="153.666" height="44.6656" filterUnits="userSpaceOnUse" color-interpolation-filters="sRGB">
<feFlood flood-opacity="0" result="BackgroundImageFix"/>
<feGaussianBlur in="BackgroundImageFix" stdDeviation="1.16641"/>
<feComposite in2="SourceAlpha" operator="in" result="effect1_backgroundBlur_667_21704"/>
<feBlend mode="normal" in="SourceGraphic" in2="effect1_backgroundBlur_667_21704" result="shape"/>
</filter>
</defs>
</svg>
