<svg width="145" height="56" viewBox="0 0 145 56" fill="none" xmlns="http://www.w3.org/2000/svg">
<path d="M-2.38419e-05 0L11.6641 11.6641H4.37401L-2.38419e-05 16.0381V0Z" fill="#D3830C"/>
<g filter="url(#filter0_b_667_21703)">
<rect x="11.832" y="15.5801" width="133" height="40" rx="6.99845" fill="#FDC46E" fill-opacity="0.12"/>
<path d="M33.672 40.7241C32.1894 40.7241 31.064 40.3347 30.296 39.5561C29.528 38.7667 29.144 37.6201 29.144 36.1161V29.3001H30.456V36.0521C30.456 38.3881 31.528 39.5561 33.672 39.5561C35.7947 39.5561 36.856 38.3881 36.856 36.0521V29.3001H38.168V36.1161C38.168 37.6201 37.784 38.7667 37.016 39.5561C36.2587 40.3347 35.144 40.7241 33.672 40.7241ZM43.3127 40.7241C42.7047 40.7241 42.1287 40.6387 41.5847 40.4681C41.0407 40.2974 40.5927 40.0574 40.2407 39.7481L40.6567 38.8361C41.0407 39.1454 41.462 39.3747 41.9207 39.5241C42.39 39.6627 42.8647 39.7321 43.3447 39.7321C43.9527 39.7321 44.4113 39.6201 44.7207 39.3961C45.03 39.1721 45.1847 38.8681 45.1847 38.4841C45.1847 38.1854 45.0833 37.9507 44.8807 37.7801C44.678 37.5987 44.358 37.4601 43.9207 37.3641L42.4647 37.0441C41.142 36.7561 40.4807 36.0734 40.4807 34.9961C40.4807 34.2921 40.758 33.7267 41.3127 33.3001C41.878 32.8734 42.614 32.6601 43.5207 32.6601C44.054 32.6601 44.5607 32.7454 45.0407 32.9161C45.5313 33.0761 45.9367 33.3161 46.2567 33.6361L45.8247 34.5481C45.5153 34.2601 45.1527 34.0414 44.7367 33.8921C44.3313 33.7321 43.926 33.6521 43.5207 33.6521C42.9233 33.6521 42.47 33.7694 42.1607 34.0041C41.8513 34.2387 41.6967 34.5481 41.6967 34.9321C41.6967 35.5294 42.0913 35.9134 42.8807 36.0841L44.3367 36.3881C45.0193 36.5374 45.5367 36.7774 45.8887 37.1081C46.2407 37.4281 46.4167 37.8654 46.4167 38.4201C46.4167 39.1347 46.134 39.7001 45.5687 40.1161C45.0033 40.5214 44.2513 40.7241 43.3127 40.7241ZM51.8958 40.7241C50.6691 40.7241 49.6984 40.3667 48.9838 39.6521C48.2691 38.9267 47.9118 37.9454 47.9118 36.7081C47.9118 35.9081 48.0718 35.2041 48.3918 34.5961C48.7118 33.9774 49.1491 33.5027 49.7038 33.1721C50.2691 32.8307 50.9198 32.6601 51.6558 32.6601C52.7118 32.6601 53.5384 33.0014 54.1358 33.6841C54.7331 34.3561 55.0318 35.2841 55.0318 36.4681V36.9641H49.1758C49.2184 37.8494 49.4744 38.5267 49.9438 38.9961C50.4131 39.4547 51.0638 39.6841 51.8958 39.6841C52.3651 39.6841 52.8131 39.6147 53.2398 39.4761C53.6664 39.3267 54.0718 39.0867 54.4558 38.7561L54.9038 39.6681C54.5518 39.9987 54.1038 40.2601 53.5598 40.4521C53.0158 40.6334 52.4611 40.7241 51.8958 40.7241ZM51.6878 33.6201C50.9518 33.6201 50.3704 33.8494 49.9438 34.3081C49.5171 34.7667 49.2664 35.3694 49.1918 36.1161H53.9118C53.8798 35.3267 53.6718 34.7134 53.2878 34.2761C52.9144 33.8387 52.3811 33.6201 51.6878 33.6201ZM56.9074 40.5801V32.8041H58.1714V34.1961C58.5874 33.2574 59.4407 32.7401 60.7314 32.6441L61.1954 32.5961L61.2914 33.7161L60.4754 33.8121C59.7394 33.8761 59.1794 34.1107 58.7954 34.5161C58.4114 34.9107 58.2194 35.4547 58.2194 36.1481V40.5801H56.9074ZM66.9272 40.5801V29.3001H68.2392V40.5801H66.9272ZM70.8449 40.5801V32.8041H72.1089V34.1321C72.3649 33.6414 72.7276 33.2734 73.1969 33.0281C73.6662 32.7827 74.1942 32.6601 74.7809 32.6601C76.6262 32.6601 77.5489 33.6841 77.5489 35.7321V40.5801H76.2529V35.8121C76.2529 35.0867 76.1089 34.5587 75.8209 34.2281C75.5436 33.8867 75.0956 33.7161 74.4769 33.7161C73.7622 33.7161 73.1916 33.9401 72.7649 34.3881C72.3489 34.8254 72.1409 35.4121 72.1409 36.1481V40.5801H70.8449ZM83.0587 40.7241C82.1413 40.7241 81.4533 40.4841 80.9947 40.0041C80.536 39.5134 80.3067 38.8094 80.3067 37.8921V33.8121H78.7867V32.8041H80.3067V30.4201H81.6027V32.8041H84.0667V33.8121H81.6027V37.7641C81.6027 38.3721 81.7307 38.8361 81.9867 39.1561C82.2427 39.4654 82.6587 39.6201 83.2347 39.6201C83.4053 39.6201 83.576 39.5987 83.7467 39.5561C83.9173 39.5134 84.072 39.4707 84.2107 39.4281L84.4347 40.4201C84.296 40.4947 84.0933 40.5641 83.8267 40.6281C83.56 40.6921 83.304 40.7241 83.0587 40.7241ZM88.9583 40.7241C87.7316 40.7241 86.7609 40.3667 86.0463 39.6521C85.3316 38.9267 84.9743 37.9454 84.9743 36.7081C84.9743 35.9081 85.1343 35.2041 85.4543 34.5961C85.7743 33.9774 86.2116 33.5027 86.7663 33.1721C87.3316 32.8307 87.9823 32.6601 88.7183 32.6601C89.7743 32.6601 90.6009 33.0014 91.1983 33.6841C91.7956 34.3561 92.0943 35.2841 92.0943 36.4681V36.9641H86.2383C86.2809 37.8494 86.5369 38.5267 87.0063 38.9961C87.4756 39.4547 88.1263 39.6841 88.9583 39.6841C89.4276 39.6841 89.8756 39.6147 90.3023 39.4761C90.7289 39.3267 91.1343 39.0867 91.5183 38.7561L91.9663 39.6681C91.6143 39.9987 91.1663 40.2601 90.6223 40.4521C90.0783 40.6334 89.5236 40.7241 88.9583 40.7241ZM88.7503 33.6201C88.0143 33.6201 87.4329 33.8494 87.0063 34.3081C86.5796 34.7667 86.3289 35.3694 86.2543 36.1161H90.9743C90.9423 35.3267 90.7343 34.7134 90.3503 34.2761C89.9769 33.8387 89.4436 33.6201 88.7503 33.6201ZM93.9699 40.5801V32.8041H95.2339V34.1961C95.6499 33.2574 96.5032 32.7401 97.7939 32.6441L98.2579 32.5961L98.3539 33.7161L97.5379 33.8121C96.8019 33.8761 96.2419 34.1107 95.8579 34.5161C95.4739 34.9107 95.2819 35.4547 95.2819 36.1481V40.5801H93.9699ZM100.542 40.5801V33.8121H99.0062V32.8041H100.542V32.5321C100.542 31.4974 100.798 30.7134 101.31 30.1801C101.833 29.6467 102.633 29.3481 103.71 29.2841L104.334 29.2521L104.446 30.2441L103.71 30.2921C103.049 30.3454 102.569 30.5427 102.27 30.8841C101.982 31.2254 101.838 31.7214 101.838 32.3721V32.8041H104.078V33.8121H101.838V40.5801H100.542ZM107.824 40.7241C107.291 40.7241 106.811 40.6227 106.384 40.4201C105.968 40.2067 105.637 39.9187 105.392 39.5561C105.147 39.1934 105.024 38.7881 105.024 38.3401C105.024 37.7747 105.168 37.3267 105.456 36.9961C105.755 36.6654 106.24 36.4307 106.912 36.2921C107.595 36.1427 108.523 36.0681 109.696 36.0681H110.208V35.5721C110.208 34.9107 110.069 34.4361 109.792 34.1481C109.525 33.8494 109.093 33.7001 108.496 33.7001C108.027 33.7001 107.573 33.7694 107.136 33.9081C106.699 34.0361 106.251 34.2494 105.792 34.5481L105.344 33.6041C105.749 33.3161 106.24 33.0867 106.816 32.9161C107.403 32.7454 107.963 32.6601 108.496 32.6601C109.499 32.6601 110.24 32.9054 110.72 33.3961C111.211 33.8867 111.456 34.6494 111.456 35.6841V40.5801H110.24V39.2361C110.037 39.6947 109.723 40.0574 109.296 40.3241C108.88 40.5907 108.389 40.7241 107.824 40.7241ZM108.032 39.7481C108.672 39.7481 109.195 39.5294 109.6 39.0921C110.005 38.6441 110.208 38.0787 110.208 37.3961V36.9161H109.712C108.848 36.9161 108.165 36.9587 107.664 37.0441C107.173 37.1187 106.827 37.2574 106.624 37.4601C106.432 37.6521 106.336 37.9187 106.336 38.2601C106.336 38.6974 106.485 39.0547 106.784 39.3321C107.093 39.6094 107.509 39.7481 108.032 39.7481ZM117.157 40.7241C116.378 40.7241 115.706 40.5587 115.141 40.2281C114.575 39.8867 114.138 39.4121 113.829 38.8041C113.53 38.1854 113.381 37.4654 113.381 36.6441C113.381 35.4067 113.717 34.4361 114.389 33.7321C115.061 33.0174 115.983 32.6601 117.157 32.6601C117.637 32.6601 118.111 32.7454 118.581 32.9161C119.05 33.0867 119.439 33.3267 119.749 33.6361L119.301 34.5801C118.991 34.2814 118.65 34.0627 118.277 33.9241C117.914 33.7854 117.567 33.7161 117.237 33.7161C116.426 33.7161 115.802 33.9721 115.365 34.4841C114.927 34.9854 114.709 35.7107 114.709 36.6601C114.709 37.5881 114.927 38.3241 115.365 38.8681C115.802 39.4014 116.426 39.6681 117.237 39.6681C117.567 39.6681 117.914 39.5987 118.277 39.4601C118.65 39.3214 118.991 39.0974 119.301 38.7881L119.749 39.7321C119.439 40.0414 119.045 40.2867 118.565 40.4681C118.095 40.6387 117.626 40.7241 117.157 40.7241ZM124.615 40.7241C123.388 40.7241 122.417 40.3667 121.703 39.6521C120.988 38.9267 120.631 37.9454 120.631 36.7081C120.631 35.9081 120.791 35.2041 121.111 34.5961C121.431 33.9774 121.868 33.5027 122.423 33.1721C122.988 32.8307 123.639 32.6601 124.375 32.6601C125.431 32.6601 126.257 33.0014 126.855 33.6841C127.452 34.3561 127.751 35.2841 127.751 36.4681V36.9641H121.895C121.937 37.8494 122.193 38.5267 122.663 38.9961C123.132 39.4547 123.783 39.6841 124.615 39.6841C125.084 39.6841 125.532 39.6147 125.959 39.4761C126.385 39.3267 126.791 39.0867 127.175 38.7561L127.623 39.6681C127.271 39.9987 126.823 40.2601 126.279 40.4521C125.735 40.6334 125.18 40.7241 124.615 40.7241ZM124.407 33.6201C123.671 33.6201 123.089 33.8494 122.663 34.3081C122.236 34.7667 121.985 35.3694 121.911 36.1161H126.631C126.599 35.3267 126.391 34.7134 126.007 34.2761C125.633 33.8387 125.1 33.6201 124.407 33.6201Z" fill="#D3830C"/>
</g>
<defs>
<filter id="filter0_b_667_21703" x="9.49921" y="13.2473" width="137.666" height="44.6656" filterUnits="userSpaceOnUse" color-interpolation-filters="sRGB">
<feFlood flood-opacity="0" result="BackgroundImageFix"/>
<feGaussianBlur in="BackgroundImageFix" stdDeviation="1.16641"/>
<feComposite in2="SourceAlpha" operator="in" result="effect1_backgroundBlur_667_21703"/>
<feBlend mode="normal" in="SourceGraphic" in2="effect1_backgroundBlur_667_21703" result="shape"/>
</filter>
</defs>
</svg>
