<svg width="516" height="404" viewBox="0 0 516 404" fill="none" xmlns="http://www.w3.org/2000/svg">
<rect x="0.5" y="0.5" width="515" height="403" rx="11.5" fill="#F2F2F2"/>
<rect x="0.5" y="0.5" width="515" height="403" rx="11.5" stroke="#F2F2F2"/>
<g filter="url(#filter0_i_666_14759)">
<rect x="160" y="179" width="196" height="46" rx="23" fill="#2F80ED"/>
<path d="M196.848 207L191.824 195.72H194.016L197.744 204.376L201.472 195.72H203.584L198.56 207H196.848ZM204.318 197.496V195.544H206.558V197.496H204.318ZM204.446 207V199.176H206.446V207H204.446ZM212.38 207.16C211.495 207.16 210.732 206.995 210.092 206.664C209.452 206.333 208.956 205.864 208.604 205.256C208.263 204.648 208.092 203.928 208.092 203.096C208.092 202.285 208.258 201.576 208.588 200.968C208.93 200.36 209.394 199.885 209.98 199.544C210.578 199.192 211.255 199.016 212.012 199.016C213.122 199.016 213.996 199.368 214.636 200.072C215.287 200.776 215.612 201.736 215.612 202.952V203.544H210.012C210.162 204.941 210.962 205.64 212.412 205.64C212.85 205.64 213.287 205.576 213.724 205.448C214.162 205.309 214.562 205.096 214.924 204.808L215.484 206.152C215.111 206.461 214.642 206.707 214.076 206.888C213.511 207.069 212.946 207.16 212.38 207.16ZM212.092 200.376C211.506 200.376 211.031 200.557 210.668 200.92C210.306 201.283 210.087 201.773 210.012 202.392H213.948C213.906 201.741 213.724 201.245 213.404 200.904C213.095 200.552 212.658 200.376 212.092 200.376ZM219.231 207L216.143 199.176H218.191L220.191 204.68L222.207 199.176H223.615L225.631 204.712L227.631 199.176H229.567L226.495 207H224.751L222.847 201.96L220.975 207H219.231ZM235.216 207V195.72H240.144C241.328 195.72 242.246 195.981 242.896 196.504C243.547 197.016 243.872 197.731 243.872 198.648C243.872 199.256 243.718 199.779 243.408 200.216C243.099 200.653 242.672 200.973 242.128 201.176C242.768 201.357 243.264 201.677 243.616 202.136C243.979 202.584 244.16 203.155 244.16 203.848C244.16 204.851 243.819 205.629 243.136 206.184C242.464 206.728 241.526 207 240.32 207H235.216ZM237.184 200.504H239.792C241.19 200.504 241.888 199.965 241.888 198.888C241.888 197.811 241.19 197.272 239.792 197.272H237.184V200.504ZM237.184 205.448H240.064C241.472 205.448 242.176 204.883 242.176 203.752C242.176 202.621 241.472 202.056 240.064 202.056H237.184V205.448ZM249.896 207.16C249.011 207.16 248.248 206.995 247.608 206.664C246.968 206.333 246.472 205.864 246.12 205.256C245.779 204.648 245.608 203.928 245.608 203.096C245.608 202.285 245.773 201.576 246.104 200.968C246.445 200.36 246.909 199.885 247.496 199.544C248.093 199.192 248.771 199.016 249.528 199.016C250.637 199.016 251.512 199.368 252.152 200.072C252.803 200.776 253.128 201.736 253.128 202.952V203.544H247.528C247.677 204.941 248.477 205.64 249.928 205.64C250.365 205.64 250.803 205.576 251.24 205.448C251.677 205.309 252.077 205.096 252.44 204.808L253 206.152C252.627 206.461 252.157 206.707 251.592 206.888C251.027 207.069 250.461 207.16 249.896 207.16ZM249.608 200.376C249.021 200.376 248.547 200.557 248.184 200.92C247.821 201.283 247.603 201.773 247.528 202.392H251.464C251.421 201.741 251.24 201.245 250.92 200.904C250.611 200.552 250.173 200.376 249.608 200.376ZM254.712 207V195.72H256.712V200.312C256.979 199.885 257.336 199.565 257.784 199.352C258.232 199.128 258.728 199.016 259.272 199.016C261.117 199.016 262.04 200.088 262.04 202.232V207H260.04V202.328C260.04 201.72 259.923 201.277 259.688 201C259.464 200.723 259.112 200.584 258.632 200.584C258.045 200.584 257.576 200.771 257.224 201.144C256.883 201.507 256.712 201.992 256.712 202.6V207H254.712ZM266.647 207.16C266.082 207.16 265.575 207.053 265.127 206.84C264.69 206.616 264.343 206.317 264.087 205.944C263.842 205.571 263.719 205.149 263.719 204.68C263.719 204.104 263.869 203.651 264.167 203.32C264.466 202.979 264.951 202.733 265.623 202.584C266.295 202.435 267.197 202.36 268.327 202.36H268.887V202.024C268.887 201.491 268.77 201.107 268.535 200.872C268.301 200.637 267.906 200.52 267.351 200.52C266.914 200.52 266.466 200.589 266.007 200.728C265.549 200.856 265.085 201.059 264.615 201.336L264.039 199.976C264.317 199.784 264.642 199.619 265.015 199.48C265.399 199.331 265.799 199.219 266.215 199.144C266.642 199.059 267.042 199.016 267.415 199.016C268.557 199.016 269.405 199.283 269.959 199.816C270.514 200.339 270.791 201.155 270.791 202.264V207H268.919V205.752C268.738 206.189 268.45 206.536 268.055 206.792C267.661 207.037 267.191 207.16 266.647 207.16ZM267.063 205.784C267.586 205.784 268.018 205.603 268.359 205.24C268.711 204.877 268.887 204.419 268.887 203.864V203.512H268.343C267.341 203.512 266.642 203.592 266.247 203.752C265.863 203.901 265.671 204.179 265.671 204.584C265.671 204.936 265.794 205.224 266.039 205.448C266.285 205.672 266.626 205.784 267.063 205.784ZM272.821 207V199.176H274.773V200.392C275.04 199.944 275.397 199.603 275.845 199.368C276.304 199.133 276.816 199.016 277.381 199.016C279.227 199.016 280.149 200.088 280.149 202.232V207H278.149V202.328C278.149 201.72 278.032 201.277 277.797 201C277.573 200.723 277.221 200.584 276.741 200.584C276.155 200.584 275.685 200.771 275.333 201.144C274.992 201.507 274.821 201.992 274.821 202.6V207H272.821ZM285.797 207.16C284.975 207.16 284.261 206.995 283.653 206.664C283.045 206.323 282.575 205.843 282.245 205.224C281.914 204.605 281.749 203.88 281.749 203.048C281.749 202.216 281.914 201.501 282.245 200.904C282.575 200.296 283.045 199.832 283.653 199.512C284.261 199.181 284.975 199.016 285.797 199.016C286.298 199.016 286.794 199.096 287.285 199.256C287.775 199.416 288.181 199.64 288.501 199.928L287.909 201.32C287.631 201.075 287.317 200.888 286.965 200.76C286.623 200.632 286.293 200.568 285.973 200.568C285.279 200.568 284.741 200.787 284.357 201.224C283.983 201.651 283.797 202.264 283.797 203.064C283.797 203.853 283.983 204.477 284.357 204.936C284.741 205.384 285.279 205.608 285.973 205.608C286.282 205.608 286.613 205.544 286.965 205.416C287.317 205.288 287.631 205.096 287.909 204.84L288.501 206.248C288.181 206.525 287.77 206.749 287.269 206.92C286.778 207.08 286.287 207.16 285.797 207.16ZM293.427 207.16C292.542 207.16 291.779 206.995 291.139 206.664C290.499 206.333 290.003 205.864 289.651 205.256C289.31 204.648 289.139 203.928 289.139 203.096C289.139 202.285 289.305 201.576 289.635 200.968C289.977 200.36 290.441 199.885 291.027 199.544C291.625 199.192 292.302 199.016 293.059 199.016C294.169 199.016 295.043 199.368 295.683 200.072C296.334 200.776 296.659 201.736 296.659 202.952V203.544H291.059C291.209 204.941 292.009 205.64 293.459 205.64C293.897 205.64 294.334 205.576 294.771 205.448C295.209 205.309 295.609 205.096 295.971 204.808L296.531 206.152C296.158 206.461 295.689 206.707 295.123 206.888C294.558 207.069 293.993 207.16 293.427 207.16ZM293.139 200.376C292.553 200.376 292.078 200.557 291.715 200.92C291.353 201.283 291.134 201.773 291.059 202.392H294.995C294.953 201.741 294.771 201.245 294.451 200.904C294.142 200.552 293.705 200.376 293.139 200.376Z" fill="white"/>
<path d="M308 201C307.448 201 307 201.448 307 202C307 202.552 307.448 203 308 203L308 201ZM324.707 202.707C325.098 202.317 325.098 201.683 324.707 201.293L318.343 194.929C317.953 194.538 317.319 194.538 316.929 194.929C316.538 195.319 316.538 195.953 316.929 196.343L322.586 202L316.929 207.657C316.538 208.047 316.538 208.681 316.929 209.071C317.319 209.462 317.953 209.462 318.343 209.071L324.707 202.707ZM308 203L324 203L324 201L308 201L308 203Z" fill="white"/>
</g>
<defs>
<filter id="filter0_i_666_14759" x="160" y="179" width="197" height="47" filterUnits="userSpaceOnUse" color-interpolation-filters="sRGB">
<feFlood flood-opacity="0" result="BackgroundImageFix"/>
<feBlend mode="normal" in="SourceGraphic" in2="BackgroundImageFix" result="shape"/>
<feColorMatrix in="SourceAlpha" type="matrix" values="0 0 0 0 0 0 0 0 0 0 0 0 0 0 0 0 0 0 127 0" result="hardAlpha"/>
<feOffset dx="1" dy="1"/>
<feGaussianBlur stdDeviation="6"/>
<feComposite in2="hardAlpha" operator="arithmetic" k2="-1" k3="1"/>
<feColorMatrix type="matrix" values="0 0 0 0 1 0 0 0 0 1 0 0 0 0 1 0 0 0 0.08 0"/>
<feBlend mode="normal" in2="shape" result="effect1_innerShadow_666_14759"/>
</filter>
</defs>
</svg>
